# xmcd
#
# Track frame offsets:
# 182
# 11457
# 25535
# 48505
# 59362
# 71120
# 86267
# 100845
# 109082
# 120280
# 148560
# 163062
# 174667
# 185277
# 190477
# 201465
# 209910
#
# Disc length: 2963 seconds
#
#
# Revision: 8
# Processed by: cddbd v1.5.2PL0 Copyright (c) Steve Scherf et al.
# Submitted via: FreeRIP 2.96 
#
DISCID=f10b9111
DTITLE=Fats Domino - The Blues Collection: Be My Guest
DYEAR=1995
DGENRE=Blues
TTITLE0=The Fat Man
TTITLE1=Blueberry Hill
TTITLE2=Domino Twist
TTITLE3=What A Price
TTITLE4=Let The Four Winds Blow
TTITLE5=Jambalaya (On The Bayou)
TTITLE6=Medley: I'm In Love Again/Honey Chile
TTITLE7=Red Sails In The Sunset
TTITLE8=Ain't That A Shame
TTITLE9=Medley: So Long/Natural Born Lover/C.C. Rider
TTITLE10=I'm In The Mood For Love
TTITLE11=I Want To Walk You Home
TTITLE12=I'm Gonna Be A Wheel Someday
TTITLE13=Whole Lotta Loving
TTITLE14=Blue Monday
TTITLE15=Be My Guest
TTITLE16=Goin' Home
EXTD=
EXTT0=
EXTT1=
EXTT2=
EXTT3=
EXTT4=
EXTT5=
EXTT6=
EXTT7=
EXTT8=
EXTT9=
EXTT10=
EXTT11=
EXTT12=
EXTT13=
EXTT14=
EXTT15=
EXTT16=
PLAYORDER=
